{"title":"The Last Ship S03E11 Legacy 1080p WEB-DL HEVC DD5.1 x265","uid":15702834,"size":727737078,"categoryP":"video","categoryS":"hd___tv_shows","magnet":"?xt=urn:btih:0283b8745448ec62dfa9821f2f7f4f548d722fa6&amp;dn=The+Last+Ship+S03E11+Legacy+1080p+WEB-DL+HEVC+DD5.1+x265&amp;tr=udp%3A%2F%2Ftracker.leechers-paradise.org%3A6969&amp;tr=udp%3A%2F%2Fzer0day.ch%3A1337&amp;tr=udp%3A%2F%2Fopen.demonii.com%3A1337&amp;tr=udp%3A%2F%2Ftracker.coppersurfer.tk%3A6969&amp;tr=udp%3A%2F%2Fexodus.desync.com%3A6969","seeders":5,"leechers":2,"uploader":"nayhtut","files":1,"time":1472498084,"description":"[Screenshots]\r\n \nhttps://s18.postimg.org/gd2r0qpl5/The_Last_Ship_S03_E11_Legacy_1080p_WEB_DL_HEVC_DD.jpg \nhttps://s18.postimg.org/z6ojxqnt5/The_Last_Ship_S03_E11_Legacy_1080p_WEB_DL_HEVC_DD.jpg \nhttps://s18.postimg.org/huo7caubt/The_Last_Ship_S03_E11_Legacy_1080p_WEB_DL_HEVC_DD.jpg\r\n\r\n\r\nSource: The Last Ship S03E11 Legacy 1080p WEB-DL DD5 1 H264-Oosh (1.62 GB)\r\n\r\n\r\n__--__--__--__--__--__--__--__--__--__--__--__--__--\r\n\r\n\r\nComplete name                            : The.Last.Ship.S03E11.Legacy.1080p.WEB-DL.HEVC.DD5.1.x265.mkv\r\nFormat                                   : Matroska\r\nFormat version                           : Version 4 / Version 2\r\nFile size                                : 694 MiB\r\nDuration                                 : 41mn 54s\r\nOverall bit rate                         : 2 315 Kbps\r\nWriting application                      : Lavf57.25.100\r\nWriting library                          : Lavf57.25.100\r\n\r\nVideo\r\n\r\nID                                       : 1\r\nFormat                                   : V_MPEGH/ISO/HEVC\r\nCodec ID                                 : V_MPEGH/ISO/HEVC\r\nDuration                                 : 41mn 54s\r\nBit rate                                 : 1 885 Kbps\r\nWidth                                    : 1 916 pixels\r\nHeight                                   : 1 076 pixels\r\nDisplay aspect ratio                     : 16:9\r\nFrame rate                               : 25.000 fps\r\nBits/(Pixel*Frame)                       : 0.037\r\nStream size                              : 565 MiB (81%)\r\nWriting library                          : Lavc57.48.101 libx265\r\nLanguage                                 : English\r\nDefault                                  : Yes\r\nForced                                   : No\r\nDURATION                                 : 00:41:54.411000000\r\nNUMBER_OF_FRAMES                         : 60284\r\nNUMBER_OF_BYTES                          : 1616788680\r\n_STATISTICS_WRITING_APP                  : mkvmerge v9.4.0 ('Knurl') 64bit\r\n_STATISTICS_WRITING_DATE_UTC             : 2016-08-29 11:19:31\r\n_STATISTICS_TAGS                         : BPS DURATION NUMBER_OF_FRAMES NUMBER_OF_BYTES\r\n\r\nAudio\r\n\r\nID                                       : 2\r\nFormat                                   : AC-3\r\nFormat/Info                              : Audio Coding 3\r\nMode extension                           : CM (complete main)\r\nFormat settings, Endianness              : Big\r\nCodec ID                                 : A_AC3\r\nDuration                                 : 41mn 54s\r\nBit rate mode                            : Constant\r\nBit rate                                 : 384 Kbps\r\nChannel(s)                               : 6 channels\r\nChannel positions                        : Front: L C R, Side: L R, LFE\r\nSampling rate                            : 48.0 KHz\r\nBit depth                                : 16 bits\r\nCompression mode                         : Lossy\r\nStream size                              : 115 MiB (17%)\r\nWriting library                          : Lavc57.24.102 ac3\r\nLanguage                                 : English\r\nDefault                                  : Yes\r\nForced                                   : No\r\nDURATION                                 : 00:41:54.399000000\r\nNUMBER_OF_FRAMES                         : 78573\r\nNUMBER_OF_BYTES                          : 120688128\r\n_STATISTICS_WRITING_APP                  : mkvmerge v9.4.0 ('Knurl') 64bit\r\n_STATISTICS_WRITING_DATE_UTC             : 2016-08-29 11:19:31\r\n_STATISTICS_TAGS                         : BPS DURATION NUMBER_OF_FRAMES NUMBER_OF_BYTES\r\n\r\nText\r\n\r\nID                                       : 3\r\nFormat                                   : ASS\r\nCodec ID                                 : S_TEXT/ASS\r\nCodec ID/Info                            : Advanced Sub Station Alpha\r\nCompression mode                         : Lossless\r\nWriting library                          : Lavc57.48.101 ssa\r\nLanguage                                 : English\r\nDefault                                  : No\r\nForced                                   : No\r\nDURATION                                 : 00:41:21.762000000\r\nNUMBER_OF_FRAMES                         : 689\r\nNUMBER_OF_BYTES                          : 30506\r\n_STATISTICS_WRITING_APP                  : mkvmerge v9.4.0 ('Knurl') 64bit\r\n_STATISTICS_WRITING_DATE_UTC             : 2016-08-29 11:19:31\r\n_STATISTICS_TAGS                         : BPS DURATION NUMBER_OF_FRAMES NUMBER_OF_BYTES\r\n\r\n__--__--__--__--__--__--__--__--__--__--__--__--__--\r\n\r\n\r\nIMDb: http://www.imdb.com/title/tt2402207\r\n\r\n\r\n__--__--__--__--__--__--__--__--__--__--__--__--__--\r\n\r\n\r\nAfter adding torrent with maget link,\r\n\r\nplease add this  following trackers list to the torrent for better seeds.\r\n\r\n\r\nudp://tracker.coppersurfer.tk:6969/announce\r\n\r\nudp://tracker.opentrackr.org:1337/announce\r\n \nhttp://tracker.baravik.org:6970/announce\r\n \nhttp://tracker2.wasabii.com.tw:6969/announce\r\n\r\nudp://9.rarbg.me:2710/announce\r\n\r\n\r\n__--__--__--__--__--__--__--__--__--__--__--__--__--\r\n\r\n\r\nEnjoy!","torrent":{"xt":"urn:btih:0283b8745448ec62dfa9821f2f7f4f548d722fa6","amp;dn":"The+Last+Ship+S03E11+Legacy+1080p+WEB-DL+HEVC+DD5.1+x265","amp;tr":["udp%3A%2F%2Ftracker.leechers-paradise.org%3A6969","udp%3A%2F%2Fzer0day.ch%3A1337","udp%3A%2F%2Fopen.demonii.com%3A1337","udp%3A%2F%2Ftracker.coppersurfer.tk%3A6969","udp%3A%2F%2Fexodus.desync.com%3A6969"],"infoHash":"0283b8745448ec62dfa9821f2f7f4f548d722fa6","infoHashBuffer":{"type":"Buffer","data":[2,131,184,116,84,72,236,98,223,169,130,31,47,127,79,84,141,114,47,166]},"announce":[],"urlList":[]}}